# MagicaVoxel @ Ephtracy

# group
o 

# material
mtllib blaster.mtl
usemtl palette

# normals
vn -1 0 0
vn 1 0 0
vn 0 0 1
vn 0 0 -1
vn 0 -1 0
vn 0 1 0

# texcoords
vt 0.970703 0.5
vt 0.974609 0.5
vt 0.978516 0.5

# verts
v -3.2 2.7 1.1
v -3.2 2.7 0.7
v -3.2 3.1 1.1
v -3.2 3.1 0.7
v -2.4 2.2 0.9
v -2.4 2.2 0.7
v -2.4 2.7 0.9
v -2.4 2.7 0.7
v -1.4 2.3 1.5
v -1.4 2.3 1.2
v -1.4 2.6 1.5
v -1.4 2.6 1.2
v -1.2 2.3 1.2
v -1.2 2.3 1.1
v -1.2 2.6 1.2
v -1.2 2.6 1.1
v -1.1 2.3 1.1
v -1.1 2.3 0.6
v -1.1 2.6 1.5
v -1.1 2.6 1.1
v -1.1 2.6 0.6
v -1.1 2.7 1.5
v -1.1 2.7 1.1
v -1 2.6 1.1
v -1 2.6 0.6
v -1 2.7 1.5
v -1 2.7 1.1
v -1 2.7 0.7
v -1 3.1 1.1
v -1 3.1 0.7
v -1 3.2 1.5
v -1 3.2 0.6
v -0.9 3.2 1.4
v -0.9 3.2 1.2
v -0.9 3.2 0.8
v -0.9 3.2 0.7
v -0.9 3.3 1.4
v -0.9 3.3 1.2
v -0.9 3.3 0.8
v -0.9 3.3 0.7
v -0.4 3.2 0.9
v -0.4 3.2 0.7
v -0.4 3.3 0.9
v -0.4 3.3 0.7
v 0.1 2.3 1.7
v 0.1 2.3 1.5
v 0.1 2.9 1.7
v 0.1 2.9 1.5
v 0.2 2.6 0.6
v 0.2 2.6 0.5
v 0.2 2.8 0.6
v 0.2 2.8 0.5
v 0.2 2.9 0.6
v 0.2 2.9 0.5
v 0.2 3 0.9
v 0.2 3 0.8
v 0.2 3.1 0.9
v 0.2 3.1 0.8
v 0.3 2.9 0.6
v 0.3 2.9 0.5
v 0.3 3 0.6
v 0.3 3 0.5
v 0.4 2.8 0.9
v 0.4 2.8 0.8
v 0.4 2.9 0.9
v 0.4 2.9 0.8
v 0.4 3 0.7
v 0.4 3 0.6
v 0.4 3.1 0.7
v 0.4 3.1 0.6
v 0.5 2.6 0.9
v 0.5 2.6 0.7
v 0.5 2.7 0.9
v 0.5 2.7 0.7
v 0.5 3 0.8
v 0.5 3 0.7
v 0.5 3.1 0.8
v 0.5 3.1 0.7
v 0.6 2.7 0.8
v 0.6 2.7 0.7
v 0.6 2.8 0.9
v 0.6 2.8 0.8
v 0.6 2.8 0.7
v 0.6 3 0.9
v 0.6 3 0.8
v -2.2 2.2 0.9
v -2.2 2.2 0.7
v -2.2 2.7 0.9
v -2.2 2.7 0.7
v -0.8 3.2 0.8
v -0.8 3.2 0.7
v -0.8 3.3 0.8
v -0.8 3.3 0.7
v -0.6 3.2 1.4
v -0.6 3.2 1.2
v -0.6 3.3 1.4
v -0.6 3.3 1.2
v -0.2 3.2 0.9
v -0.2 3.2 0.7
v -0.2 3.3 0.9
v -0.2 3.3 0.7
v -0.0999999 3.1 1.5
v -0.0999999 3.1 0.6
v -0.0999999 3.2 1.5
v -0.0999999 3.2 0.6
v 0 3 1.5
v 0 3 1.4
v 0 3 1.1
v 0 3 0.6
v 0 3.1 1.5
v 0 3.1 1.4
v 0 3.1 1.1
v 0 3.1 0.6
v 0.1 2.9 1.5
v 0.1 2.9 1.4
v 0.1 2.9 1.1
v 0.1 2.9 0.9
v 0.1 2.9 0.8
v 0.1 2.9 0.6
v 0.1 3 1.5
v 0.1 3 1.4
v 0.1 3 1.1
v 0.1 3 0.9
v 0.1 3 0.8
v 0.1 3 0.6
v 0.2 2.8 1.7
v 0.2 2.8 0.6
v 0.2 2.9 1.7
v 0.2 2.9 1.4
v 0.2 2.9 1.1
v 0.2 2.9 0.9
v 0.2 2.9 0.8
v 0.2 2.9 0.6
v 0.2 3 0.9
v 0.2 3 0.8
v 0.3 2.7 1.7
v 0.3 2.7 1.6
v 0.3 2.7 1.5
v 0.3 2.7 0.9
v 0.3 2.7 0.8
v 0.3 2.7 0.7
v 0.3 2.8 1.7
v 0.3 2.8 1.6
v 0.3 2.8 1.5
v 0.3 2.8 0.9
v 0.3 2.8 0.8
v 0.3 2.8 0.7
v 0.3 2.8 0.6
v 0.3 2.8 0.5
v 0.3 2.9 0.6
v 0.3 2.9 0.5
v 0.3 3 0.9
v 0.3 3 0.8
v 0.3 3.1 0.9
v 0.3 3.1 0.8
v 0.4 2.6 1.7
v 0.4 2.6 0.6
v 0.4 2.6 0.5
v 0.4 2.7 1.7
v 0.4 2.7 1.6
v 0.4 2.7 1.5
v 0.4 2.7 0.9
v 0.4 2.7 0.8
v 0.4 2.7 0.7
v 0.4 2.8 1.6
v 0.4 2.8 1.5
v 0.4 2.8 0.9
v 0.4 2.8 0.8
v 0.4 2.8 0.7
v 0.4 2.8 0.5
v 0.4 2.9 0.6
v 0.4 2.9 0.5
v 0.4 3 0.6
v 0.4 3 0.5
v 0.5 2.3 1.4
v 0.5 2.3 0.9
v 0.5 2.3 0.7
v 0.5 2.3 0.6
v 0.5 2.4 1
v 0.5 2.4 0.9
v 0.5 2.4 0.7
v 0.5 2.4 0.6
v 0.5 2.5 1.7
v 0.5 2.5 1.6
v 0.5 2.5 1.5
v 0.5 2.5 1.4
v 0.5 2.6 1.7
v 0.5 2.6 1.6
v 0.5 2.6 1.5
v 0.5 2.6 1
v 0.5 2.8 0.9
v 0.5 2.8 0.8
v 0.5 2.9 0.9
v 0.5 2.9 0.8
v 0.5 3 0.7
v 0.5 3 0.6
v 0.5 3.1 0.7
v 0.5 3.1 0.6
v 0.6 2.4 1.7
v 0.6 2.4 1.4
v 0.6 2.5 1.7
v 0.6 2.5 1.6
v 0.6 2.5 1.5
v 0.6 2.5 1.4
v 0.6 2.6 1.6
v 0.6 2.6 1.5
v 0.6 3 0.8
v 0.6 3 0.7
v 0.6 3.1 0.8
v 0.6 3.1 0.7
v 0.7 2.3 1.7
v 0.7 2.3 1.4
v 0.7 2.3 0.9
v 0.7 2.3 0.7
v 0.7 2.4 1.7
v 0.7 2.4 1.4
v 0.7 2.4 1
v 0.7 2.4 0.9
v 0.7 2.4 0.7
v 0.7 2.4 0.6
v 0.7 2.6 1
v 0.7 2.6 0.9
v 0.7 2.6 0.7
v 0.7 2.6 0.6
v 0.7 2.7 0.9
v 0.7 2.7 0.8
v 0.7 2.7 0.7
v 0.7 2.8 0.9
v 0.7 2.8 0.8
v 0.7 2.8 0.7
v 0.7 3 0.9
v 0.7 3 0.8
v 0.8 2.4 0.9
v 0.8 2.4 0.7
v 0.8 2.6 0.9
v 0.8 2.6 0.7
v 1.8 2.9 1.4
v 1.8 2.9 1.1
v 1.8 3.1 1.4
v 1.8 3.1 1.1
v 0.1 2.3 1.7
v 0.1 2.9 1.7
v 0.2 2.8 1.7
v 0.2 2.9 1.7
v 0.3 2.7 1.7
v 0.3 2.8 1.7
v 0.4 2.6 1.7
v 0.4 2.7 1.7
v 0.5 2.5 1.7
v 0.5 2.6 1.7
v 0.6 2.4 1.7
v 0.6 2.5 1.7
v 0.7 2.3 1.7
v 0.7 2.4 1.7
v 0.3 2.7 1.6
v 0.3 2.8 1.6
v 0.4 2.7 1.6
v 0.4 2.8 1.6
v 0.5 2.5 1.6
v 0.5 2.6 1.6
v 0.6 2.5 1.6
v 0.6 2.6 1.6
v -1.4 2.3 1.5
v -1.4 2.6 1.5
v -1.1 2.6 1.5
v -1.1 2.7 1.5
v -1 2.7 1.5
v -1 3.2 1.5
v -0.0999999 3.1 1.5
v -0.0999999 3.2 1.5
v 0 3 1.5
v 0 3.1 1.5
v 0.1 2.3 1.5
v 0.1 2.9 1.5
v 0.1 3 1.5
v -0.9 3.2 1.4
v -0.9 3.3 1.4
v -0.6 3.2 1.4
v -0.6 3.3 1.4
v 0 3 1.4
v 0 3.1 1.4
v 0.1 2.9 1.4
v 0.1 3 1.4
v 0.2 2.9 1.4
v 1.8 2.9 1.4
v 1.8 3.1 1.4
v -3.2 2.7 1.1
v -3.2 3.1 1.1
v -1.1 2.7 1.1
v -1 2.7 1.1
v -1 3.1 1.1
v 0.5 2.4 1
v 0.5 2.6 1
v 0.7 2.4 1
v 0.7 2.6 1
v -2.4 2.2 0.9
v -2.4 2.7 0.9
v -2.2 2.2 0.9
v -2.2 2.7 0.9
v -0.4 3.2 0.9
v -0.4 3.3 0.9
v -0.2 3.2 0.9
v -0.2 3.3 0.9
v 0.1 2.9 0.9
v 0.1 3 0.9
v 0.2 2.9 0.9
v 0.2 3 0.9
v 0.2 3.1 0.9
v 0.3 2.7 0.9
v 0.3 2.8 0.9
v 0.3 3 0.9
v 0.3 3.1 0.9
v 0.4 2.7 0.9
v 0.4 2.8 0.9
v 0.4 2.9 0.9
v 0.5 2.3 0.9
v 0.5 2.4 0.9
v 0.5 2.6 0.9
v 0.5 2.7 0.9
v 0.5 2.8 0.9
v 0.5 2.9 0.9
v 0.6 2.8 0.9
v 0.6 3 0.9
v 0.7 2.3 0.9
v 0.7 2.4 0.9
v 0.7 2.6 0.9
v 0.7 2.7 0.9
v 0.7 2.8 0.9
v 0.7 3 0.9
v 0.8 2.4 0.9
v 0.8 2.6 0.9
v -0.9 3.2 0.8
v -0.9 3.3 0.8
v -0.8 3.2 0.8
v -0.8 3.3 0.8
v 0.5 3 0.8
v 0.5 3.1 0.8
v 0.6 2.7 0.8
v 0.6 2.8 0.8
v 0.6 3 0.8
v 0.6 3.1 0.8
v 0.7 2.7 0.8
v 0.7 2.8 0.8
v 0.3 2.7 0.7
v 0.3 2.8 0.7
v 0.4 2.7 0.7
v 0.4 2.8 0.7
v 0.4 3 0.7
v 0.4 3.1 0.7
v 0.5 3 0.7
v 0.5 3.1 0.7
v 0.2 2.8 0.6
v 0.2 2.9 0.6
v 0.3 2.8 0.6
v 0.3 2.9 0.6
v 0.3 3 0.6
v 0.4 2.9 0.6
v 0.4 3 0.6
v 0.3 2.7 1.5
v 0.3 2.8 1.5
v 0.4 2.7 1.5
v 0.4 2.8 1.5
v 0.5 2.5 1.5
v 0.5 2.6 1.5
v 0.6 2.5 1.5
v 0.6 2.6 1.5
v 0.5 2.3 1.4
v 0.5 2.5 1.4
v 0.6 2.4 1.4
v 0.6 2.5 1.4
v 0.7 2.3 1.4
v 0.7 2.4 1.4
v -1.4 2.3 1.2
v -1.4 2.6 1.2
v -1.2 2.3 1.2
v -1.2 2.6 1.2
v -0.9 3.2 1.2
v -0.9 3.3 1.2
v -0.6 3.2 1.2
v -0.6 3.3 1.2
v -1.2 2.3 1.1
v -1.2 2.6 1.1
v -1.1 2.3 1.1
v -1.1 2.6 1.1
v -1.1 2.7 1.1
v -1 2.6 1.1
v -1 2.7 1.1
v 0 3 1.1
v 0 3.1 1.1
v 0.1 2.9 1.1
v 0.1 3 1.1
v 0.2 2.9 1.1
v 1.8 2.9 1.1
v 1.8 3.1 1.1
v 0.1 2.9 0.8
v 0.1 3 0.8
v 0.2 2.9 0.8
v 0.2 3 0.8
v 0.2 3.1 0.8
v 0.3 2.7 0.8
v 0.3 2.8 0.8
v 0.3 3 0.8
v 0.3 3.1 0.8
v 0.4 2.7 0.8
v 0.4 2.8 0.8
v 0.4 2.9 0.8
v 0.5 2.8 0.8
v 0.5 2.9 0.8
v 0.6 2.8 0.8
v 0.6 3 0.8
v 0.7 2.8 0.8
v 0.7 3 0.8
v -3.2 2.7 0.7
v -3.2 3.1 0.7
v -2.4 2.2 0.7
v -2.4 2.7 0.7
v -2.2 2.2 0.7
v -2.2 2.7 0.7
v -1 2.7 0.7
v -1 3.1 0.7
v -0.9 3.2 0.7
v -0.9 3.3 0.7
v -0.8 3.2 0.7
v -0.8 3.3 0.7
v -0.4 3.2 0.7
v -0.4 3.3 0.7
v -0.2 3.2 0.7
v -0.2 3.3 0.7
v 0.5 2.3 0.7
v 0.5 2.4 0.7
v 0.5 2.6 0.7
v 0.5 2.7 0.7
v 0.5 3 0.7
v 0.5 3.1 0.7
v 0.6 2.7 0.7
v 0.6 2.8 0.7
v 0.6 3 0.7
v 0.6 3.1 0.7
v 0.7 2.3 0.7
v 0.7 2.4 0.7
v 0.7 2.6 0.7
v 0.7 2.7 0.7
v 0.7 2.8 0.7
v 0.8 2.4 0.7
v 0.8 2.6 0.7
v -1.1 2.3 0.6
v -1.1 2.6 0.6
v -1 2.6 0.6
v -1 3.2 0.6
v -0.0999999 3.1 0.6
v -0.0999999 3.2 0.6
v 0 3 0.6
v 0 3.1 0.6
v 0.1 2.9 0.6
v 0.1 3 0.6
v 0.2 2.6 0.6
v 0.2 2.8 0.6
v 0.2 2.9 0.6
v 0.4 2.6 0.6
v 0.4 3 0.6
v 0.4 3.1 0.6
v 0.5 2.3 0.6
v 0.5 2.4 0.6
v 0.5 3 0.6
v 0.5 3.1 0.6
v 0.7 2.4 0.6
v 0.7 2.6 0.6
v 0.2 2.6 0.5
v 0.2 2.8 0.5
v 0.2 2.9 0.5
v 0.3 2.8 0.5
v 0.3 2.9 0.5
v 0.3 3 0.5
v 0.4 2.6 0.5
v 0.4 2.8 0.5
v 0.4 2.9 0.5
v 0.4 3 0.5
v -2.4 2.2 0.9
v -2.2 2.2 0.9
v -2.4 2.2 0.7
v -2.2 2.2 0.7
v 0.1 2.3 1.7
v 0.7 2.3 1.7
v -1.4 2.3 1.5
v 0.1 2.3 1.5
v 0.5 2.3 1.4
v 0.7 2.3 1.4
v -1.4 2.3 1.2
v -1.2 2.3 1.2
v -1.2 2.3 1.1
v -1.1 2.3 1.1
v 0.5 2.3 0.9
v 0.7 2.3 0.9
v 0.5 2.3 0.7
v 0.7 2.3 0.7
v -1.1 2.3 0.6
v 0.5 2.3 0.6
v 0.5 2.4 1
v 0.7 2.4 1
v 0.5 2.4 0.9
v 0.7 2.4 0.9
v 0.8 2.4 0.9
v 0.5 2.4 0.7
v 0.7 2.4 0.7
v 0.8 2.4 0.7
v 0.5 2.4 0.6
v 0.7 2.4 0.6
v 0.2 2.6 0.6
v 0.4 2.6 0.6
v 0.2 2.6 0.5
v 0.4 2.6 0.5
v -3.2 2.7 1.1
v -1.1 2.7 1.1
v -1 2.7 1.1
v -2.4 2.7 0.9
v -2.2 2.7 0.9
v -3.2 2.7 0.7
v -2.4 2.7 0.7
v -2.2 2.7 0.7
v -1 2.7 0.7
v 0.4 2.8 0.9
v 0.5 2.8 0.9
v 0.6 2.8 0.9
v 0.7 2.8 0.9
v 0.4 2.8 0.8
v 0.5 2.8 0.8
v 0.6 2.8 0.8
v 0.7 2.8 0.8
v 0.2 2.9 1.4
v 1.8 2.9 1.4
v 0.2 2.9 1.1
v 1.8 2.9 1.1
v 0.3 2.9 0.6
v 0.4 2.9 0.6
v 0.3 2.9 0.5
v 0.4 2.9 0.5
v 0.2 3 0.9
v 0.3 3 0.9
v 0.2 3 0.8
v 0.3 3 0.8
v 0.5 3 0.8
v 0.6 3 0.8
v 0.4 3 0.7
v 0.5 3 0.7
v 0.6 3 0.7
v 0.4 3 0.6
v 0.5 3 0.6
v 0.6 2.4 1.7
v 0.7 2.4 1.7
v 0.6 2.4 1.4
v 0.7 2.4 1.4
v 0.5 2.5 1.7
v 0.6 2.5 1.7
v 0.5 2.5 1.6
v 0.6 2.5 1.6
v 0.5 2.5 1.5
v 0.6 2.5 1.5
v 0.5 2.5 1.4
v 0.6 2.5 1.4
v 0.4 2.6 1.7
v 0.5 2.6 1.7
v 0.5 2.6 1.6
v 0.6 2.6 1.6
v -1.4 2.6 1.5
v -1.1 2.6 1.5
v 0.5 2.6 1.5
v 0.6 2.6 1.5
v -1.4 2.6 1.2
v -1.2 2.6 1.2
v -1.2 2.6 1.1
v -1.1 2.6 1.1
v -1 2.6 1.1
v 0.5 2.6 1
v 0.7 2.6 1
v 0.5 2.6 0.9
v 0.7 2.6 0.9
v 0.8 2.6 0.9
v 0.5 2.6 0.7
v 0.7 2.6 0.7
v 0.8 2.6 0.7
v -1.1 2.6 0.6
v -1 2.6 0.6
v 0.4 2.6 0.6
v 0.7 2.6 0.6
v 0.3 2.7 1.7
v 0.4 2.7 1.7
v 0.3 2.7 1.6
v 0.4 2.7 1.6
v -1.1 2.7 1.5
v -1 2.7 1.5
v 0.3 2.7 1.5
v 0.4 2.7 1.5
v -1.1 2.7 1.1
v -1 2.7 1.1
v 0.3 2.7 0.9
v 0.4 2.7 0.9
v 0.5 2.7 0.9
v 0.7 2.7 0.9
v 0.3 2.7 0.8
v 0.4 2.7 0.8
v 0.6 2.7 0.8
v 0.7 2.7 0.8
v 0.3 2.7 0.7
v 0.4 2.7 0.7
v 0.5 2.7 0.7
v 0.6 2.7 0.7
v 0.2 2.8 1.7
v 0.3 2.8 1.7
v 0.3 2.8 1.6
v 0.4 2.8 1.6
v 0.3 2.8 1.5
v 0.4 2.8 1.5
v 0.3 2.8 0.9
v 0.4 2.8 0.9
v 0.3 2.8 0.8
v 0.4 2.8 0.8
v 0.6 2.8 0.8
v 0.7 2.8 0.8
v 0.3 2.8 0.7
v 0.4 2.8 0.7
v 0.6 2.8 0.7
v 0.7 2.8 0.7
v 0.2 2.8 0.6
v 0.3 2.8 0.6
v 0.3 2.8 0.5
v 0.4 2.8 0.5
v 0.1 2.9 1.7
v 0.2 2.9 1.7
v 0.1 2.9 1.5
v 0.1 2.9 1.4
v 0.2 2.9 1.4
v 0.1 2.9 1.1
v 0.2 2.9 1.1
v 0.1 2.9 0.9
v 0.2 2.9 0.9
v 0.4 2.9 0.9
v 0.5 2.9 0.9
v 0.1 2.9 0.8
v 0.2 2.9 0.8
v 0.4 2.9 0.8
v 0.5 2.9 0.8
v 0.1 2.9 0.6
v 0.2 2.9 0.6
v 0.3 2.9 0.6
v 0.2 2.9 0.5
v 0.3 2.9 0.5
v 0 3 1.5
v 0.1 3 1.5
v 0 3 1.4
v 0.1 3 1.4
v 0 3 1.1
v 0.1 3 1.1
v 0.1 3 0.9
v 0.2 3 0.9
v 0.6 3 0.9
v 0.7 3 0.9
v 0.1 3 0.8
v 0.2 3 0.8
v 0.6 3 0.8
v 0.7 3 0.8
v 0 3 0.6
v 0.1 3 0.6
v 0.3 3 0.6
v 0.4 3 0.6
v 0.3 3 0.5
v 0.4 3 0.5
v -0.0999999 3.1 1.5
v 0 3.1 1.5
v 0 3.1 1.4
v 1.8 3.1 1.4
v -3.2 3.1 1.1
v -1 3.1 1.1
v 0 3.1 1.1
v 1.8 3.1 1.1
v 0.2 3.1 0.9
v 0.3 3.1 0.9
v 0.2 3.1 0.8
v 0.3 3.1 0.8
v 0.5 3.1 0.8
v 0.6 3.1 0.8
v -3.2 3.1 0.7
v -1 3.1 0.7
v 0.4 3.1 0.7
v 0.5 3.1 0.7
v 0.6 3.1 0.7
v -0.0999999 3.1 0.6
v 0 3.1 0.6
v 0.4 3.1 0.6
v 0.5 3.1 0.6
v -1 3.2 1.5
v -0.0999999 3.2 1.5
v -0.9 3.2 1.4
v -0.6 3.2 1.4
v -0.9 3.2 1.2
v -0.6 3.2 1.2
v -0.4 3.2 0.9
v -0.2 3.2 0.9
v -0.9 3.2 0.8
v -0.8 3.2 0.8
v -0.9 3.2 0.7
v -0.8 3.2 0.7
v -0.4 3.2 0.7
v -0.2 3.2 0.7
v -1 3.2 0.6
v -0.0999999 3.2 0.6
v -0.9 3.3 1.4
v -0.6 3.3 1.4
v -0.9 3.3 1.2
v -0.6 3.3 1.2
v -0.4 3.3 0.9
v -0.2 3.3 0.9
v -0.9 3.3 0.8
v -0.8 3.3 0.8
v -0.9 3.3 0.7
v -0.8 3.3 0.7
v -0.4 3.3 0.7
v -0.2 3.3 0.7

# faces
f 3/1/1 2/1/1 1/1/1
f 4/1/1 2/1/1 3/1/1
f 7/1/1 6/1/1 5/1/1
f 8/1/1 6/1/1 7/1/1
f 11/1/1 10/1/1 9/1/1
f 12/1/1 10/1/1 11/1/1
f 15/1/1 14/1/1 13/1/1
f 16/1/1 14/1/1 15/1/1
f 20/1/1 18/1/1 17/1/1
f 21/1/1 18/1/1 20/1/1
f 22/1/1 20/1/1 19/1/1
f 23/1/1 20/1/1 22/1/1
f 27/1/1 25/1/1 24/1/1
f 28/1/1 25/1/1 27/1/1
f 29/1/1 27/1/1 26/1/1
f 30/1/1 25/1/1 28/1/1
f 31/1/1 29/1/1 26/1/1
f 31/1/1 30/1/1 29/1/1
f 32/1/1 25/1/1 30/1/1
f 32/1/1 30/1/1 31/1/1
f 37/1/1 34/1/1 33/1/1
f 38/1/1 34/1/1 37/1/1
f 39/1/1 36/1/1 35/1/1
f 40/1/1 36/1/1 39/1/1
f 43/1/1 42/1/1 41/1/1
f 44/1/1 42/1/1 43/1/1
f 47/1/1 46/1/1 45/1/1
f 48/1/1 46/1/1 47/1/1
f 51/1/1 50/1/1 49/1/1
f 52/1/1 50/1/1 51/1/1
f 53/3/1 52/3/1 51/3/1
f 54/3/1 52/3/1 53/3/1
f 57/2/1 56/2/1 55/2/1
f 58/2/1 56/2/1 57/2/1
f 61/3/1 60/3/1 59/3/1
f 62/3/1 60/3/1 61/3/1
f 65/2/1 64/2/1 63/2/1
f 66/2/1 64/2/1 65/2/1
f 69/3/1 68/3/1 67/3/1
f 70/3/1 68/3/1 69/3/1
f 73/1/1 72/1/1 71/1/1
f 74/1/1 72/1/1 73/1/1
f 77/3/1 76/3/1 75/3/1
f 78/3/1 76/3/1 77/3/1
f 82/3/1 80/3/1 79/3/1
f 83/3/1 80/3/1 82/3/1
f 84/3/1 82/3/1 81/3/1
f 85/3/1 82/3/1 84/3/1
f 86/1/2 87/1/2 88/1/2
f 88/1/2 87/1/2 89/1/2
f 90/1/2 91/1/2 92/1/2
f 92/1/2 91/1/2 93/1/2
f 94/1/2 95/1/2 96/1/2
f 96/1/2 95/1/2 97/1/2
f 98/1/2 99/1/2 100/1/2
f 100/1/2 99/1/2 101/1/2
f 102/1/2 103/1/2 104/1/2
f 104/1/2 103/1/2 105/1/2
f 106/1/2 107/1/2 110/1/2
f 110/1/2 107/1/2 111/1/2
f 108/1/2 109/1/2 112/1/2
f 112/1/2 109/1/2 113/1/2
f 114/1/2 115/1/2 120/1/2
f 120/1/2 115/1/2 121/1/2
f 116/1/2 117/1/2 122/1/2
f 122/1/2 117/1/2 123/1/2
f 118/1/2 119/1/2 124/1/2
f 124/1/2 119/1/2 125/1/2
f 126/1/2 127/1/2 128/1/2
f 128/1/2 127/1/2 129/1/2
f 129/1/2 127/1/2 130/1/2
f 130/1/2 127/1/2 131/1/2
f 131/1/2 127/1/2 132/1/2
f 132/1/2 127/1/2 133/1/2
f 131/2/2 132/2/2 134/2/2
f 134/2/2 132/2/2 135/2/2
f 136/1/2 137/1/2 142/1/2
f 142/1/2 137/1/2 143/1/2
f 138/1/2 139/1/2 144/1/2
f 144/1/2 139/1/2 145/1/2
f 140/1/2 141/1/2 146/1/2
f 146/1/2 141/1/2 147/1/2
f 148/3/2 149/3/2 150/3/2
f 150/3/2 149/3/2 151/3/2
f 152/2/2 153/2/2 154/2/2
f 154/2/2 153/2/2 155/2/2
f 156/1/2 157/1/2 159/1/2
f 157/1/2 158/1/2 159/1/2
f 159/1/2 158/1/2 160/1/2
f 160/1/2 158/1/2 161/1/2
f 161/1/2 158/1/2 162/1/2
f 162/1/2 158/1/2 163/1/2
f 163/1/2 158/1/2 164/1/2
f 160/2/2 161/2/2 165/2/2
f 165/2/2 161/2/2 166/2/2
f 162/2/2 163/2/2 167/2/2
f 167/2/2 163/2/2 168/2/2
f 164/1/2 158/1/2 169/1/2
f 169/1/2 158/1/2 170/1/2
f 171/3/2 172/3/2 173/3/2
f 173/3/2 172/3/2 174/3/2
f 175/1/2 176/1/2 179/1/2
f 179/1/2 176/1/2 180/1/2
f 177/1/2 178/1/2 181/1/2
f 181/1/2 178/1/2 182/1/2
f 175/1/2 179/1/2 186/1/2
f 183/1/2 184/1/2 187/1/2
f 187/1/2 184/1/2 188/1/2
f 185/1/2 186/1/2 189/1/2
f 186/1/2 179/1/2 190/1/2
f 189/1/2 186/1/2 190/1/2
f 191/2/2 192/2/2 193/2/2
f 193/2/2 192/2/2 194/2/2
f 195/3/2 196/3/2 197/3/2
f 197/3/2 196/3/2 198/3/2
f 199/1/2 200/1/2 201/1/2
f 201/1/2 200/1/2 202/1/2
f 202/1/2 200/1/2 203/1/2
f 203/1/2 200/1/2 204/1/2
f 202/2/2 203/2/2 205/2/2
f 205/2/2 203/2/2 206/2/2
f 207/3/2 208/3/2 209/3/2
f 209/3/2 208/3/2 210/3/2
f 211/1/2 212/1/2 215/1/2
f 215/1/2 212/1/2 216/1/2
f 213/1/2 214/1/2 218/1/2
f 218/1/2 214/1/2 219/1/2
f 217/1/2 218/1/2 221/1/2
f 221/1/2 218/1/2 222/1/2
f 219/1/2 220/1/2 223/1/2
f 223/1/2 220/1/2 224/1/2
f 222/1/2 223/1/2 225/1/2
f 225/1/2 223/1/2 226/1/2
f 226/1/2 223/1/2 227/1/2
f 226/3/2 227/3/2 229/3/2
f 229/3/2 227/3/2 230/3/2
f 228/3/2 229/3/2 231/3/2
f 231/3/2 229/3/2 232/3/2
f 233/1/2 234/1/2 235/1/2
f 235/1/2 234/1/2 236/1/2
f 237/1/2 238/1/2 239/1/2
f 239/1/2 238/1/2 240/1/2
f 243/1/3 242/1/3 241/1/3
f 244/1/3 242/1/3 243/1/3
f 245/1/3 243/1/3 241/1/3
f 246/1/3 243/1/3 245/1/3
f 247/1/3 245/1/3 241/1/3
f 248/1/3 245/1/3 247/1/3
f 249/1/3 247/1/3 241/1/3
f 250/1/3 247/1/3 249/1/3
f 251/1/3 249/1/3 241/1/3
f 252/1/3 249/1/3 251/1/3
f 253/1/3 251/1/3 241/1/3
f 254/1/3 251/1/3 253/1/3
f 257/2/3 256/2/3 255/2/3
f 258/2/3 256/2/3 257/2/3
f 261/2/3 260/2/3 259/2/3
f 262/2/3 260/2/3 261/2/3
f 265/1/3 264/1/3 263/1/3
f 267/1/3 266/1/3 265/1/3
f 269/1/3 268/1/3 267/1/3
f 270/1/3 268/1/3 269/1/3
f 271/1/3 269/1/3 267/1/3
f 272/1/3 269/1/3 271/1/3
f 273/1/3 265/1/3 263/1/3
f 273/1/3 267/1/3 265/1/3
f 273/1/3 271/1/3 267/1/3
f 274/1/3 271/1/3 273/1/3
f 275/1/3 271/1/3 274/1/3
f 278/1/3 277/1/3 276/1/3
f 279/1/3 277/1/3 278/1/3
f 283/1/3 281/1/3 280/1/3
f 284/1/3 283/1/3 282/1/3
f 285/1/3 283/1/3 284/1/3
f 286/1/3 281/1/3 283/1/3
f 286/1/3 283/1/3 285/1/3
f 289/1/3 288/1/3 287/1/3
f 290/1/3 288/1/3 289/1/3
f 291/1/3 288/1/3 290/1/3
f 294/1/3 293/1/3 292/1/3
f 295/1/3 293/1/3 294/1/3
f 298/1/3 297/1/3 296/1/3
f 299/1/3 297/1/3 298/1/3
f 302/1/3 301/1/3 300/1/3
f 303/1/3 301/1/3 302/1/3
f 306/2/3 305/2/3 304/2/3
f 307/2/3 305/2/3 306/2/3
f 311/2/3 308/2/3 307/2/3
f 312/2/3 308/2/3 311/2/3
f 313/2/3 310/2/3 309/2/3
f 314/2/3 310/2/3 313/2/3
f 320/2/3 315/2/3 314/2/3
f 321/2/3 315/2/3 320/2/3
f 324/1/3 317/1/3 316/1/3
f 325/1/3 317/1/3 324/1/3
f 326/1/3 319/1/3 318/1/3
f 327/1/3 319/1/3 326/1/3
f 328/3/3 323/3/3 322/3/3
f 329/3/3 323/3/3 328/3/3
f 330/1/3 326/1/3 325/1/3
f 331/1/3 326/1/3 330/1/3
f 334/1/3 333/1/3 332/1/3
f 335/1/3 333/1/3 334/1/3
f 340/3/3 337/3/3 336/3/3
f 341/3/3 337/3/3 340/3/3
f 342/3/3 339/3/3 338/3/3
f 343/3/3 339/3/3 342/3/3
f 346/1/3 345/1/3 344/1/3
f 347/1/3 345/1/3 346/1/3
f 350/3/3 349/3/3 348/3/3
f 351/3/3 349/3/3 350/3/3
f 354/3/3 353/3/3 352/3/3
f 355/3/3 353/3/3 354/3/3
f 357/3/3 356/3/3 355/3/3
f 358/3/3 356/3/3 357/3/3
f 359/2/4 360/2/4 361/2/4
f 361/2/4 360/2/4 362/2/4
f 363/2/4 364/2/4 365/2/4
f 365/2/4 364/2/4 366/2/4
f 367/1/4 368/1/4 369/1/4
f 369/1/4 368/1/4 370/1/4
f 367/1/4 369/1/4 371/1/4
f 371/1/4 369/1/4 372/1/4
f 373/1/4 374/1/4 375/1/4
f 375/1/4 374/1/4 376/1/4
f 377/1/4 378/1/4 379/1/4
f 379/1/4 378/1/4 380/1/4
f 381/1/4 382/1/4 383/1/4
f 383/1/4 382/1/4 384/1/4
f 384/1/4 385/1/4 386/1/4
f 386/1/4 385/1/4 387/1/4
f 388/1/4 389/1/4 391/1/4
f 390/1/4 391/1/4 392/1/4
f 392/1/4 391/1/4 393/1/4
f 391/1/4 389/1/4 394/1/4
f 393/1/4 391/1/4 394/1/4
f 395/2/4 396/2/4 397/2/4
f 397/2/4 396/2/4 398/2/4
f 398/2/4 399/2/4 402/2/4
f 402/2/4 399/2/4 403/2/4
f 400/2/4 401/2/4 404/2/4
f 404/2/4 401/2/4 405/2/4
f 405/2/4 406/2/4 407/2/4
f 407/2/4 406/2/4 408/2/4
f 409/3/4 410/3/4 411/3/4
f 411/3/4 410/3/4 412/3/4
f 413/1/4 414/1/4 416/1/4
f 415/1/4 416/1/4 417/1/4
f 416/1/4 414/1/4 418/1/4
f 417/1/4 416/1/4 418/1/4
f 418/1/4 414/1/4 419/1/4
f 419/1/4 414/1/4 420/1/4
f 421/1/4 422/1/4 423/1/4
f 423/1/4 422/1/4 424/1/4
f 425/1/4 426/1/4 427/1/4
f 427/1/4 426/1/4 428/1/4
f 431/1/4 432/1/4 435/1/4
f 433/3/4 434/3/4 437/3/4
f 437/3/4 434/3/4 438/3/4
f 429/1/4 430/1/4 439/1/4
f 439/1/4 430/1/4 440/1/4
f 431/1/4 435/1/4 441/1/4
f 435/3/4 436/3/4 442/3/4
f 441/1/4 435/1/4 442/1/4
f 442/3/4 436/3/4 443/3/4
f 440/1/4 441/1/4 444/1/4
f 444/1/4 441/1/4 445/1/4
f 446/1/4 447/1/4 448/1/4
f 448/1/4 449/1/4 450/1/4
f 450/1/4 449/1/4 451/1/4
f 448/1/4 450/1/4 452/1/4
f 452/1/4 450/1/4 453/1/4
f 448/1/4 452/1/4 454/1/4
f 454/1/4 452/1/4 455/1/4
f 446/1/4 448/1/4 456/1/4
f 448/1/4 454/1/4 456/1/4
f 456/1/4 454/1/4 457/1/4
f 457/1/4 454/1/4 458/1/4
f 446/1/4 456/1/4 459/1/4
f 446/1/4 459/1/4 462/1/4
f 462/1/4 459/1/4 463/1/4
f 460/3/4 461/3/4 464/3/4
f 464/3/4 461/3/4 465/3/4
f 463/1/4 459/1/4 466/1/4
f 466/1/4 459/1/4 467/1/4
f 468/1/4 469/1/4 471/1/4
f 469/3/4 470/3/4 471/3/4
f 471/3/4 470/3/4 472/3/4
f 468/1/4 471/1/4 474/1/4
f 474/1/4 471/1/4 475/1/4
f 472/3/4 473/3/4 476/3/4
f 476/3/4 473/3/4 477/3/4
f 480/1/5 479/1/5 478/1/5
f 481/1/5 479/1/5 480/1/5
f 485/1/5 483/1/5 482/1/5
f 486/1/5 483/1/5 485/1/5
f 486/1/5 485/1/5 484/1/5
f 487/1/5 483/1/5 486/1/5
f 488/1/5 486/1/5 484/1/5
f 489/1/5 486/1/5 488/1/5
f 490/1/5 486/1/5 489/1/5
f 491/1/5 486/1/5 490/1/5
f 492/1/5 486/1/5 491/1/5
f 494/1/5 492/1/5 491/1/5
f 494/1/5 493/1/5 492/1/5
f 495/1/5 493/1/5 494/1/5
f 496/1/5 494/1/5 491/1/5
f 497/1/5 494/1/5 496/1/5
f 500/1/5 499/1/5 498/1/5
f 501/1/5 499/1/5 500/1/5
f 504/1/5 502/1/5 501/1/5
f 505/1/5 502/1/5 504/1/5
f 506/1/5 504/1/5 503/1/5
f 507/1/5 504/1/5 506/1/5
f 510/1/5 509/1/5 508/1/5
f 511/1/5 509/1/5 510/1/5
f 515/1/5 513/1/5 512/1/5
f 515/1/5 514/1/5 513/1/5
f 516/1/5 514/1/5 515/1/5
f 517/1/5 515/1/5 512/1/5
f 518/1/5 515/1/5 517/1/5
f 519/1/5 514/1/5 516/1/5
f 520/1/5 514/1/5 519/1/5
f 525/2/5 522/2/5 521/2/5
f 526/2/5 522/2/5 525/2/5
f 527/3/5 524/3/5 523/3/5
f 528/3/5 524/3/5 527/3/5
f 531/1/5 530/1/5 529/1/5
f 532/1/5 530/1/5 531/1/5
f 535/3/5 534/3/5 533/3/5
f 536/3/5 534/3/5 535/3/5
f 539/2/5 538/2/5 537/2/5
f 540/2/5 538/2/5 539/2/5
f 544/3/5 542/3/5 541/3/5
f 545/3/5 542/3/5 544/3/5
f 546/3/5 544/3/5 543/3/5
f 547/3/5 544/3/5 546/3/5
f 548/1/6 549/1/6 550/1/6
f 550/1/6 549/1/6 551/1/6
f 552/1/6 553/1/6 554/1/6
f 554/1/6 553/1/6 555/1/6
f 556/1/6 557/1/6 558/1/6
f 558/1/6 557/1/6 559/1/6
f 560/1/6 561/1/6 562/1/6
f 560/1/6 562/1/6 566/1/6
f 562/2/6 563/2/6 566/2/6
f 566/2/6 563/2/6 567/2/6
f 564/1/6 565/1/6 568/1/6
f 568/1/6 565/1/6 569/1/6
f 569/1/6 565/1/6 570/1/6
f 570/1/6 565/1/6 571/1/6
f 560/1/6 566/1/6 573/1/6
f 560/1/6 573/1/6 575/1/6
f 573/1/6 574/1/6 575/1/6
f 575/1/6 574/1/6 576/1/6
f 560/1/6 575/1/6 578/1/6
f 576/1/6 577/1/6 579/1/6
f 579/1/6 577/1/6 580/1/6
f 571/1/6 572/1/6 581/1/6
f 581/1/6 572/1/6 582/1/6
f 560/1/6 578/1/6 583/1/6
f 578/1/6 579/1/6 583/1/6
f 583/1/6 579/1/6 584/1/6
f 585/1/6 586/1/6 587/1/6
f 587/1/6 586/1/6 588/1/6
f 589/1/6 590/1/6 593/1/6
f 593/1/6 590/1/6 594/1/6
f 591/1/6 592/1/6 595/1/6
f 595/1/6 592/1/6 596/1/6
f 597/1/6 598/1/6 601/1/6
f 601/1/6 598/1/6 602/1/6
f 599/1/6 600/1/6 603/1/6
f 603/1/6 600/1/6 604/1/6
f 597/1/6 601/1/6 605/1/6
f 605/1/6 601/1/6 606/1/6
f 607/1/6 608/1/6 609/1/6
f 607/1/6 609/1/6 611/1/6
f 609/2/6 610/2/6 611/2/6
f 611/2/6 610/2/6 612/2/6
f 607/1/6 611/1/6 613/1/6
f 607/1/6 613/1/6 615/1/6
f 613/2/6 614/2/6 615/2/6
f 615/2/6 614/2/6 616/2/6
f 607/1/6 615/1/6 619/1/6
f 617/3/6 618/3/6 621/3/6
f 621/3/6 618/3/6 622/3/6
f 619/1/6 620/1/6 623/1/6
f 607/1/6 619/1/6 623/1/6
f 623/1/6 620/1/6 624/1/6
f 624/1/6 620/1/6 625/1/6
f 625/1/6 620/1/6 626/1/6
f 627/1/6 628/1/6 629/1/6
f 629/1/6 628/1/6 630/1/6
f 630/1/6 628/1/6 631/1/6
f 632/1/6 633/1/6 634/1/6
f 634/1/6 633/1/6 635/1/6
f 636/2/6 637/2/6 640/2/6
f 640/2/6 637/2/6 641/2/6
f 638/1/6 639/1/6 642/1/6
f 642/1/6 639/1/6 643/1/6
f 643/3/6 644/3/6 645/3/6
f 645/3/6 644/3/6 646/3/6
f 647/1/6 648/1/6 649/1/6
f 649/1/6 648/1/6 650/1/6
f 651/1/6 652/1/6 653/1/6
f 651/1/6 653/1/6 657/1/6
f 653/2/6 654/2/6 657/2/6
f 657/2/6 654/2/6 658/2/6
f 655/3/6 656/3/6 659/3/6
f 659/3/6 656/3/6 660/3/6
f 651/1/6 657/1/6 661/1/6
f 661/1/6 657/1/6 662/1/6
f 663/3/6 664/3/6 665/3/6
f 665/3/6 664/3/6 666/3/6
f 667/1/6 668/1/6 669/1/6
f 667/1/6 669/1/6 673/1/6
f 669/1/6 670/1/6 673/1/6
f 673/1/6 670/1/6 674/1/6
f 675/2/6 676/2/6 677/2/6
f 677/2/6 676/2/6 678/2/6
f 671/1/6 672/1/6 681/1/6
f 681/1/6 672/1/6 682/1/6
f 679/3/6 680/3/6 684/3/6
f 684/3/6 680/3/6 685/3/6
f 667/1/6 673/1/6 686/1/6
f 686/1/6 673/1/6 687/1/6
f 683/3/6 684/3/6 688/3/6
f 688/3/6 684/3/6 689/3/6
f 690/1/6 691/1/6 692/1/6
f 692/1/6 691/1/6 693/1/6
f 690/1/6 692/1/6 694/1/6
f 693/1/6 691/1/6 695/1/6
f 695/1/6 691/1/6 696/1/6
f 694/1/6 695/1/6 696/1/6
f 696/1/6 691/1/6 697/1/6
f 690/1/6 694/1/6 698/1/6
f 694/1/6 696/1/6 698/1/6
f 698/1/6 696/1/6 699/1/6
f 690/1/6 698/1/6 700/1/6
f 699/1/6 696/1/6 701/1/6
f 701/1/6 696/1/6 702/1/6
f 697/1/6 691/1/6 703/1/6
f 701/1/6 702/1/6 704/1/6
f 702/1/6 703/1/6 704/1/6
f 690/1/6 700/1/6 704/1/6
f 700/1/6 701/1/6 704/1/6
f 703/1/6 691/1/6 705/1/6
f 704/1/6 703/1/6 705/1/6
f 706/1/6 707/1/6 708/1/6
f 708/1/6 707/1/6 709/1/6
f 712/1/6 713/1/6 714/1/6
f 714/1/6 713/1/6 715/1/6
f 710/1/6 711/1/6 716/1/6
f 716/1/6 711/1/6 717/1/6
