# MagicaVoxel @ Ephtracy

# group
o 

# material
mtllib healthKit.mtl
usemtl palette

# normals
vn -1 0 0
vn 1 0 0
vn 0 0 1
vn 0 0 -1
vn 0 -1 0
vn 0 1 0

# texcoords
vt 0.970703 0.5
vt 0.974609 0.5
vt 0.978516 0.5

# verts
v -1 0 -0.3
v -1 0 -0.8
v -1 1 -0.3
v -1 1 -0.8
v -0.8 1.2 -0.4
v -0.8 1.2 -0.7
v -0.8 1.4 -0.4
v -0.8 1.4 -0.7
v -0.7 1 -0.5
v -0.7 1 -0.6
v -0.7 1.2 -0.5
v -0.7 1.2 -0.6
v 0.3 1 -0.5
v 0.3 1 -0.6
v 0.3 1.2 -0.5
v 0.3 1.2 -0.6
v -0.6 1 -0.5
v -0.6 1 -0.6
v -0.6 1.2 -0.5
v -0.6 1.2 -0.6
v 0.4 1 -0.5
v 0.4 1 -0.6
v 0.4 1.2 -0.5
v 0.4 1.2 -0.6
v 0.5 1.2 -0.4
v 0.5 1.2 -0.7
v 0.5 1.4 -0.4
v 0.5 1.4 -0.7
v 0.7 0 -0.3
v 0.7 0 -0.8
v 0.7 1 -0.3
v 0.7 1 -0.8
v -1 0 -0.3
v -1 1 -0.3
v -0.7 0.6 -0.3
v -0.7 0.7 -0.3
v -0.6 0.5 -0.3
v -0.6 0.6 -0.3
v -0.6 0.7 -0.3
v -0.6 0.8 -0.3
v -0.5 0.4 -0.3
v -0.5 0.5 -0.3
v -0.5 0.6 -0.3
v -0.5 0.7 -0.3
v -0.5 0.8 -0.3
v -0.5 0.9 -0.3
v -0.4 0.3 -0.3
v -0.4 0.4 -0.3
v -0.4 0.5 -0.3
v -0.4 0.7 -0.3
v -0.4 0.8 -0.3
v -0.4 0.9 -0.3
v -0.3 0.2 -0.3
v -0.3 0.3 -0.3
v -0.3 0.4 -0.3
v -0.3 0.6 -0.3
v -0.3 0.7 -0.3
v -0.3 0.8 -0.3
v -0.2 0.1 -0.3
v -0.2 0.2 -0.3
v -0.2 0.3 -0.3
v -0.2 0.5 -0.3
v -0.2 0.6 -0.3
v -0.2 0.7 -0.3
v -0.1 0.1 -0.3
v -0.1 0.2 -0.3
v -0.1 0.3 -0.3
v -0.1 0.5 -0.3
v -0.1 0.6 -0.3
v -0.1 0.7 -0.3
v 0 0.2 -0.3
v 0 0.3 -0.3
v 0 0.4 -0.3
v 0 0.6 -0.3
v 0 0.7 -0.3
v 0 0.8 -0.3
v 0.1 0.3 -0.3
v 0.1 0.4 -0.3
v 0.1 0.5 -0.3
v 0.1 0.7 -0.3
v 0.1 0.8 -0.3
v 0.1 0.9 -0.3
v 0.2 0.4 -0.3
v 0.2 0.5 -0.3
v 0.2 0.6 -0.3
v 0.2 0.7 -0.3
v 0.2 0.8 -0.3
v 0.2 0.9 -0.3
v 0.3 0.5 -0.3
v 0.3 0.6 -0.3
v 0.3 0.7 -0.3
v 0.3 0.8 -0.3
v 0.4 0.6 -0.3
v 0.4 0.7 -0.3
v 0.7 0 -0.3
v 0.7 1 -0.3
v -0.8 1.2 -0.4
v -0.8 1.4 -0.4
v 0.5 1.2 -0.4
v 0.5 1.4 -0.4
v -0.7 1 -0.5
v -0.7 1.2 -0.5
v -0.6 1 -0.5
v -0.6 1.2 -0.5
v 0.3 1 -0.5
v 0.3 1.2 -0.5
v 0.4 1 -0.5
v 0.4 1.2 -0.5
v -0.7 1 -0.6
v -0.7 1.2 -0.6
v -0.6 1 -0.6
v -0.6 1.2 -0.6
v 0.3 1 -0.6
v 0.3 1.2 -0.6
v 0.4 1 -0.6
v 0.4 1.2 -0.6
v -0.8 1.2 -0.7
v -0.8 1.4 -0.7
v 0.5 1.2 -0.7
v 0.5 1.4 -0.7
v -1 0 -0.8
v -1 1 -0.8
v 0.7 0 -0.8
v 0.7 1 -0.8
v -1 0 -0.3
v 0.7 0 -0.3
v -1 0 -0.8
v 0.7 0 -0.8
v -0.8 1.2 -0.4
v 0.5 1.2 -0.4
v -0.7 1.2 -0.5
v -0.6 1.2 -0.5
v 0.3 1.2 -0.5
v 0.4 1.2 -0.5
v -0.7 1.2 -0.6
v -0.6 1.2 -0.6
v 0.3 1.2 -0.6
v 0.4 1.2 -0.6
v -0.8 1.2 -0.7
v 0.5 1.2 -0.7
v -1 1 -0.3
v 0.7 1 -0.3
v -0.7 1 -0.5
v -0.6 1 -0.5
v 0.3 1 -0.5
v 0.4 1 -0.5
v -0.7 1 -0.6
v -0.6 1 -0.6
v 0.3 1 -0.6
v 0.4 1 -0.6
v -1 1 -0.8
v 0.7 1 -0.8
v -0.8 1.4 -0.4
v 0.5 1.4 -0.4
v -0.8 1.4 -0.7
v 0.5 1.4 -0.7

# faces
f 3/1/1 2/1/1 1/1/1
f 4/1/1 2/1/1 3/1/1
f 7/1/1 6/1/1 5/1/1
f 8/1/1 6/1/1 7/1/1
f 11/2/1 10/2/1 9/2/1
f 12/2/1 10/2/1 11/2/1
f 15/2/1 14/2/1 13/2/1
f 16/2/1 14/2/1 15/2/1
f 17/2/2 18/2/2 19/2/2
f 19/2/2 18/2/2 20/2/2
f 21/2/2 22/2/2 23/2/2
f 23/2/2 22/2/2 24/2/2
f 25/1/2 26/1/2 27/1/2
f 27/1/2 26/1/2 28/1/2
f 29/1/2 30/1/2 31/1/2
f 31/1/2 30/1/2 32/1/2
f 35/1/3 34/1/3 33/1/3
f 36/1/3 34/1/3 35/1/3
f 37/1/3 35/1/3 33/1/3
f 38/2/3 36/2/3 35/2/3
f 38/1/3 35/1/3 37/1/3
f 39/1/3 34/1/3 36/1/3
f 39/2/3 36/2/3 38/2/3
f 40/1/3 34/1/3 39/1/3
f 41/1/3 37/1/3 33/1/3
f 42/2/3 38/2/3 37/2/3
f 42/1/3 37/1/3 41/1/3
f 43/3/3 39/3/3 38/3/3
f 43/2/3 38/2/3 42/2/3
f 44/2/3 40/2/3 39/2/3
f 44/3/3 39/3/3 43/3/3
f 45/1/3 34/1/3 40/1/3
f 45/2/3 40/2/3 44/2/3
f 46/1/3 34/1/3 45/1/3
f 47/1/3 41/1/3 33/1/3
f 48/2/3 42/2/3 41/2/3
f 48/1/3 41/1/3 47/1/3
f 49/3/3 44/3/3 43/3/3
f 49/2/3 42/2/3 48/2/3
f 49/3/3 43/3/3 42/3/3
f 49/3/3 45/3/3 44/3/3
f 50/3/3 45/3/3 49/3/3
f 51/2/3 46/2/3 45/2/3
f 51/3/3 45/3/3 50/3/3
f 52/1/3 34/1/3 46/1/3
f 52/2/3 46/2/3 51/2/3
f 53/1/3 47/1/3 33/1/3
f 54/2/3 48/2/3 47/2/3
f 54/1/3 47/1/3 53/1/3
f 55/3/3 50/3/3 49/3/3
f 55/2/3 48/2/3 54/2/3
f 55/3/3 49/3/3 48/3/3
f 56/3/3 50/3/3 55/3/3
f 57/2/3 51/2/3 50/2/3
f 57/3/3 50/3/3 56/3/3
f 58/1/3 52/1/3 51/1/3
f 58/2/3 51/2/3 57/2/3
f 59/1/3 53/1/3 33/1/3
f 60/2/3 54/2/3 53/2/3
f 60/1/3 53/1/3 59/1/3
f 61/3/3 56/3/3 55/3/3
f 61/2/3 54/2/3 60/2/3
f 61/3/3 55/3/3 54/3/3
f 62/3/3 56/3/3 61/3/3
f 63/2/3 57/2/3 56/2/3
f 63/3/3 56/3/3 62/3/3
f 64/1/3 58/1/3 57/1/3
f 64/2/3 57/2/3 63/2/3
f 65/2/3 60/2/3 59/2/3
f 65/1/3 59/1/3 33/1/3
f 66/3/3 62/3/3 61/3/3
f 66/2/3 60/2/3 65/2/3
f 66/3/3 61/3/3 60/3/3
f 67/3/3 62/3/3 66/3/3
f 68/2/3 63/2/3 62/2/3
f 68/3/3 62/3/3 67/3/3
f 69/1/3 64/1/3 63/1/3
f 69/2/3 63/2/3 68/2/3
f 70/1/3 58/1/3 64/1/3
f 70/1/3 64/1/3 69/1/3
f 71/2/3 67/2/3 66/2/3
f 71/1/3 66/1/3 65/1/3
f 72/3/3 69/3/3 68/3/3
f 72/2/3 67/2/3 71/2/3
f 72/3/3 68/3/3 67/3/3
f 73/3/3 69/3/3 72/3/3
f 74/2/3 70/2/3 69/2/3
f 74/3/3 69/3/3 73/3/3
f 75/1/3 58/1/3 70/1/3
f 75/2/3 70/2/3 74/2/3
f 76/1/3 52/1/3 58/1/3
f 76/1/3 58/1/3 75/1/3
f 77/2/3 73/2/3 72/2/3
f 77/1/3 72/1/3 71/1/3
f 78/3/3 75/3/3 74/3/3
f 78/2/3 73/2/3 77/2/3
f 78/3/3 74/3/3 73/3/3
f 79/3/3 75/3/3 78/3/3
f 80/2/3 76/2/3 75/2/3
f 80/3/3 75/3/3 79/3/3
f 81/1/3 52/1/3 76/1/3
f 81/2/3 76/2/3 80/2/3
f 82/1/3 34/1/3 52/1/3
f 82/1/3 52/1/3 81/1/3
f 83/2/3 79/2/3 78/2/3
f 83/1/3 78/1/3 77/1/3
f 84/3/3 81/3/3 80/3/3
f 84/2/3 79/2/3 83/2/3
f 84/3/3 80/3/3 79/3/3
f 85/3/3 81/3/3 84/3/3
f 86/3/3 81/3/3 85/3/3
f 87/2/3 82/2/3 81/2/3
f 87/3/3 81/3/3 86/3/3
f 88/1/3 34/1/3 82/1/3
f 88/2/3 82/2/3 87/2/3
f 89/1/3 84/1/3 83/1/3
f 89/2/3 85/2/3 84/2/3
f 90/3/3 86/3/3 85/3/3
f 90/2/3 85/2/3 89/2/3
f 91/2/3 87/2/3 86/2/3
f 91/3/3 86/3/3 90/3/3
f 92/1/3 88/1/3 87/1/3
f 92/2/3 87/2/3 91/2/3
f 93/1/3 90/1/3 89/1/3
f 93/2/3 91/2/3 90/2/3
f 94/1/3 92/1/3 91/1/3
f 94/2/3 91/2/3 93/2/3
f 95/1/3 71/1/3 65/1/3
f 95/1/3 77/1/3 71/1/3
f 95/1/3 94/1/3 93/1/3
f 95/1/3 93/1/3 89/1/3
f 95/1/3 83/1/3 77/1/3
f 95/1/3 89/1/3 83/1/3
f 95/1/3 65/1/3 33/1/3
f 96/1/3 92/1/3 94/1/3
f 96/1/3 94/1/3 95/1/3
f 96/1/3 34/1/3 88/1/3
f 96/1/3 88/1/3 92/1/3
f 99/1/3 98/1/3 97/1/3
f 100/1/3 98/1/3 99/1/3
f 103/2/3 102/2/3 101/2/3
f 104/2/3 102/2/3 103/2/3
f 107/2/3 106/2/3 105/2/3
f 108/2/3 106/2/3 107/2/3
f 109/2/4 110/2/4 111/2/4
f 111/2/4 110/2/4 112/2/4
f 113/2/4 114/2/4 115/2/4
f 115/2/4 114/2/4 116/2/4
f 117/1/4 118/1/4 119/1/4
f 119/1/4 118/1/4 120/1/4
f 121/1/4 122/1/4 123/1/4
f 123/1/4 122/1/4 124/1/4
f 127/1/5 126/1/5 125/1/5
f 128/1/5 126/1/5 127/1/5
f 131/1/5 130/1/5 129/1/5
f 132/1/5 130/1/5 131/1/5
f 133/1/5 130/1/5 132/1/5
f 134/1/5 130/1/5 133/1/5
f 135/1/5 131/1/5 129/1/5
f 136/1/5 133/1/5 132/1/5
f 137/1/5 133/1/5 136/1/5
f 138/1/5 130/1/5 134/1/5
f 139/1/5 137/1/5 136/1/5
f 139/1/5 138/1/5 137/1/5
f 139/1/5 135/1/5 129/1/5
f 139/1/5 136/1/5 135/1/5
f 140/1/5 130/1/5 138/1/5
f 140/1/5 138/1/5 139/1/5
f 141/1/6 142/1/6 143/1/6
f 143/1/6 142/1/6 144/1/6
f 144/1/6 142/1/6 145/1/6
f 145/1/6 142/1/6 146/1/6
f 141/1/6 143/1/6 147/1/6
f 144/1/6 145/1/6 148/1/6
f 148/1/6 145/1/6 149/1/6
f 146/1/6 142/1/6 150/1/6
f 148/1/6 149/1/6 151/1/6
f 149/1/6 150/1/6 151/1/6
f 141/1/6 147/1/6 151/1/6
f 147/1/6 148/1/6 151/1/6
f 150/1/6 142/1/6 152/1/6
f 151/1/6 150/1/6 152/1/6
f 153/1/6 154/1/6 155/1/6
f 155/1/6 154/1/6 156/1/6
